NotoSansSylotiNagri-Regular.ufo
<glyph name="uni09E8" format="2">
  <advance width="592"/>
  <unicode hex="09E8"/>
  <note>
uni09E8
</note>
  <outline>
    <contour>
      <point x="316" y="173" type="curve"/>
      <point x="432" y="188"/>
      <point x="500" y="252"/>
      <point x="500" y="333" type="curve" smooth="yes"/>
      <point x="500" y="427"/>
      <point x="447" y="471"/>
      <point x="322" y="494" type="curve" smooth="yes"/>
      <point x="289" y="500"/>
      <point x="265" y="506"/>
      <point x="250" y="511" type="curve" smooth="yes"/>
      <point x="222" y="520"/>
      <point x="211" y="528"/>
      <point x="211" y="549" type="curve" smooth="yes"/>
      <point x="211" y="565"/>
      <point x="219" y="581"/>
      <point x="233" y="596" type="curve"/>
      <point x="170" y="631" type="line"/>
      <point x="142" y="597"/>
      <point x="127" y="566"/>
      <point x="127" y="539" type="curve" smooth="yes"/>
      <point x="127" y="482"/>
      <point x="174" y="451"/>
      <point x="285" y="428" type="curve" smooth="yes"/>
      <point x="368" y="411"/>
      <point x="419" y="398"/>
      <point x="419" y="333" type="curve" smooth="yes"/>
      <point x="419" y="267"/>
      <point x="358" y="233"/>
      <point x="235" y="233" type="curve" smooth="yes"/>
      <point x="180" y="233"/>
      <point x="136" y="239"/>
      <point x="80" y="256" type="curve"/>
      <point x="65" y="185" type="line"/>
      <point x="285" y="136"/>
      <point x="380" y="80"/>
      <point x="507" y="-26" type="curve"/>
      <point x="553" y="28" type="line"/>
      <point x="476" y="92"/>
      <point x="396" y="140"/>
    </contour>
  </outline>
</glyph>
<glyph name="uni09E9" format="2">
  <advance width="592"/>
  <unicode hex="09E9"/>
  <note>
uni09E9
</note>
  <outline>
    <contour>
      <point x="29" y="490" type="line"/>
      <point x="82" y="234"/>
      <point x="137" y="39"/>
      <point x="346" y="39" type="curve" smooth="yes"/>
      <point x="480" y="39"/>
      <point x="553" y="132"/>
      <point x="553" y="295" type="curve" smooth="yes"/>
      <point x="553" y="449"/>
      <point x="477" y="579"/>
      <point x="337" y="579" type="curve" smooth="yes"/>
      <point x="262" y="579"/>
      <point x="207" y="538"/>
      <point x="207" y="467" type="curve" smooth="yes"/>
      <point x="207" y="436"/>
      <point x="215" y="403"/>
      <point x="231" y="369" type="curve"/>
      <point x="311" y="390" type="line"/>
      <point x="298" y="415"/>
      <point x="292" y="438"/>
      <point x="292" y="458" type="curve" smooth="yes"/>
      <point x="292" y="490"/>
      <point x="312" y="509"/>
      <point x="347" y="509" type="curve" smooth="yes"/>
      <point x="427" y="509"/>
      <point x="473" y="399"/>
      <point x="473" y="295" type="curve" smooth="yes"/>
      <point x="473" y="176"/>
      <point x="428" y="114"/>
      <point x="341" y="114" type="curve" smooth="yes"/>
      <point x="194" y="114"/>
      <point x="148" y="297"/>
      <point x="103" y="510" type="curve"/>
    </contour>
  </outline>
</glyph>
<glyph name="uni09EA" format="2">
  <advance width="592"/>
  <unicode hex="09EA"/>
  <note>
uni09EA
</note>
  <outline>
    <contour>
      <point x="393" y="331" type="curve"/>
      <point x="481" y="367"/>
      <point x="519" y="411"/>
      <point x="519" y="476" type="curve" smooth="yes"/>
      <point x="519" y="563"/>
      <point x="438" y="622"/>
      <point x="290" y="622" type="curve" smooth="yes"/>
      <point x="177" y="622"/>
      <point x="74" y="568"/>
      <point x="74" y="471" type="curve" smooth="yes"/>
      <point x="74" y="406"/>
      <point x="106" y="369"/>
      <point x="198" y="326" type="curve"/>
      <point x="106" y="289"/>
      <point x="63" y="240"/>
      <point x="63" y="174" type="curve" smooth="yes"/>
      <point x="63" y="67"/>
      <point x="150" y="0"/>
      <point x="296" y="0" type="curve" smooth="yes"/>
      <point x="452" y="0"/>
      <point x="530" y="58"/>
      <point x="530" y="174" type="curve" smooth="yes"/>
      <point x="530" y="246"/>
      <point x="492" y="292"/>
    </contour>
    <contour>
      <point x="297" y="363" type="curve"/>
      <point x="198" y="388"/>
      <point x="154" y="420"/>
      <point x="154" y="471" type="curve" smooth="yes"/>
      <point x="154" y="519"/>
      <point x="213" y="551"/>
      <point x="291" y="551" type="curve" smooth="yes"/>
      <point x="384" y="551"/>
      <point x="438" y="521"/>
      <point x="438" y="471" type="curve" smooth="yes"/>
      <point x="438" y="426"/>
      <point x="381" y="385"/>
    </contour>
    <contour>
      <point x="296" y="292" type="curve"/>
      <point x="390" y="272"/>
      <point x="450" y="227"/>
      <point x="450" y="173" type="curve" smooth="yes"/>
      <point x="450" y="106"/>
      <point x="396" y="71"/>
      <point x="296" y="71" type="curve" smooth="yes"/>
      <point x="200" y="71"/>
      <point x="143" y="110"/>
      <point x="143" y="169" type="curve" smooth="yes"/>
      <point x="143" y="226"/>
      <point x="190" y="264"/>
    </contour>
  </outline>
</glyph>
<glyph name="uni09EC" format="2">
  <advance width="592"/>
  <unicode hex="09EC"/>
  <note>
uni09EC
</note>
  <outline>
    <contour>
      <point x="21" y="452" type="line"/>
      <point x="77" y="220"/>
      <point x="157" y="39"/>
      <point x="347" y="39" type="curve" smooth="yes"/>
      <point x="482" y="39"/>
      <point x="559" y="125"/>
      <point x="559" y="268" type="curve" smooth="yes"/>
      <point x="559" y="327"/>
      <point x="536" y="400"/>
      <point x="499" y="452" type="curve"/>
      <point x="443" y="438" type="line"/>
      <point x="417" y="366"/>
      <point x="389" y="328"/>
      <point x="348" y="328" type="curve" smooth="yes"/>
      <point x="323" y="328"/>
      <point x="312" y="346"/>
      <point x="312" y="380" type="curve" smooth="yes"/>
      <point x="312" y="471" type="line" smooth="yes"/>
      <point x="312" y="566"/>
      <point x="267" y="591"/>
      <point x="175" y="593" type="curve"/>
      <point x="166" y="517" type="line"/>
      <point x="222" y="514"/>
      <point x="235" y="505"/>
      <point x="235" y="451" type="curve" smooth="yes"/>
      <point x="235" y="388" type="line" smooth="yes"/>
      <point x="235" y="299"/>
      <point x="275" y="257"/>
      <point x="340" y="257" type="curve" smooth="yes"/>
      <point x="393" y="257"/>
      <point x="436" y="288"/>
      <point x="469" y="349" type="curve"/>
      <point x="479" y="323"/>
      <point x="483" y="297"/>
      <point x="483" y="271" type="curve" smooth="yes"/>
      <point x="483" y="171"/>
      <point x="432" y="114"/>
      <point x="342" y="114" type="curve" smooth="yes"/>
      <point x="217" y="114"/>
      <point x="148" y="229"/>
      <point x="96" y="475" type="curve"/>
    </contour>
  </outline>
</glyph>
<glyph name="uni09EE" format="2">
  <advance width="592"/>
  <unicode hex="09EE"/>
  <note>
uni09EE
</note>
  <outline>
    <contour>
      <point x="167" y="501" type="line" smooth="yes"/>
      <point x="167" y="595"/>
      <point x="124" y="621"/>
      <point x="31" y="624" type="curve"/>
      <point x="22" y="547" type="line"/>
      <point x="78" y="544"/>
      <point x="91" y="535"/>
      <point x="91" y="481" type="curve" smooth="yes"/>
      <point x="91" y="154" type="line" smooth="yes"/>
      <point x="91" y="54"/>
      <point x="144" y="0"/>
      <point x="237" y="0" type="curve" smooth="yes"/>
      <point x="357" y="0"/>
      <point x="448" y="86"/>
      <point x="448" y="213" type="curve" smooth="yes"/>
      <point x="448" y="244"/>
      <point x="442" y="270"/>
      <point x="430" y="293" type="curve"/>
      <point x="434" y="292"/>
      <point x="438" y="292"/>
      <point x="442" y="292" type="curve" smooth="yes"/>
      <point x="514" y="292"/>
      <point x="562" y="322"/>
      <point x="586" y="383" type="curve"/>
      <point x="514" y="418" type="line"/>
      <point x="494" y="380"/>
      <point x="470" y="360"/>
      <point x="408" y="360" type="curve" smooth="yes"/>
      <point x="349" y="360"/>
      <point x="330" y="375"/>
      <point x="269" y="375" type="curve" smooth="yes"/>
      <point x="242" y="375"/>
      <point x="201" y="368"/>
      <point x="167" y="355" type="curve"/>
    </contour>
    <contour>
      <point x="167" y="281" type="line"/>
      <point x="200" y="296"/>
      <point x="236" y="304"/>
      <point x="274" y="304" type="curve" smooth="yes"/>
      <point x="333" y="304"/>
      <point x="368" y="272"/>
      <point x="368" y="212" type="curve" smooth="yes"/>
      <point x="368" y="134"/>
      <point x="316" y="71"/>
      <point x="238" y="71" type="curve" smooth="yes"/>
      <point x="193" y="71"/>
      <point x="167" y="88"/>
      <point x="167" y="168" type="curve" smooth="yes"/>
    </contour>
  </outline>
</glyph>
<glyph name="uniA804" format="2">
  <advance width="567"/>
  <unicode hex="A804"/>
  <outline>
    <contour>
      <point x="259" y="-8" type="curve" smooth="yes"/>
      <point x="301" y="-8"/>
      <point x="339" y="-1"/>
      <point x="397" y="28" type="curve"/>
      <point x="361" y="93" type="line"/>
      <point x="318" y="69"/>
      <point x="288" y="62"/>
      <point x="259" y="62" type="curve" smooth="yes"/>
      <point x="204" y="62"/>
      <point x="166" y="99"/>
      <point x="166" y="187" type="curve" smooth="yes"/>
      <point x="166" y="237" type="line"/>
      <point x="387" y="237"/>
      <point x="483" y="333"/>
      <point x="483" y="611" type="curve"/>
      <point x="578" y="611" type="line"/>
      <point x="578" y="679" type="line"/>
      <point x="478" y="679" type="line"/>
      <point x="460" y="887"/>
      <point x="283" y="919"/>
      <point x="156" y="932" type="curve"/>
      <point x="143" y="868" type="line"/>
      <point x="262" y="849"/>
      <point x="392" y="830"/>
      <point x="407" y="679" type="curve"/>
      <point x="-17" y="679" type="line"/>
      <point x="-17" y="611" type="line"/>
      <point x="90" y="611" type="line"/>
      <point x="90" y="187" type="line" smooth="yes"/>
      <point x="90" y="58"/>
      <point x="157" y="-8"/>
    </contour>
    <contour>
      <point x="166" y="306" type="curve"/>
      <point x="166" y="611" type="line"/>
      <point x="408" y="611" type="line"/>
      <point x="408" y="376"/>
      <point x="337" y="306"/>
    </contour>
  </outline>
</glyph>
<glyph name="uniA806" format="2">
  <unicode hex="A806"/>
  <outline>
    <contour>
      <point x="-314" y="755" type="line"/>
      <point x="-209" y="878" type="line"/>
      <point x="-95" y="755" type="line"/>
      <point x="-42" y="805" type="line"/>
      <point x="-210" y="967" type="line"/>
      <point x="-368" y="805" type="line"/>
    </contour>
  </outline>
</glyph>
<glyph name="uniA80A" format="2">
  <advance width="613"/>
  <unicode hex="A80A"/>
  <outline>
    <contour>
      <point x="450" y="0" type="line"/>
      <point x="526" y="0" type="line"/>
      <point x="526" y="611" type="line"/>
      <point x="623" y="611" type="line"/>
      <point x="623" y="679" type="line"/>
      <point x="-17" y="679" type="line"/>
      <point x="-17" y="611" type="line"/>
      <point x="450" y="611" type="line"/>
      <point x="450" y="555" type="line"/>
      <point x="429" y="555" type="line" smooth="yes"/>
      <point x="274" y="555"/>
      <point x="175" y="532"/>
      <point x="76" y="433" type="curve"/>
      <point x="103" y="383"/>
      <point x="163" y="337"/>
      <point x="221" y="311" type="curve"/>
      <point x="158" y="292"/>
      <point x="84" y="246"/>
      <point x="49" y="202" type="curve"/>
      <point x="132" y="102"/>
      <point x="243" y="57"/>
      <point x="434" y="57" type="curve" smooth="yes"/>
      <point x="450" y="57" type="line"/>
    </contour>
    <contour>
      <point x="405" y="128" type="curve" smooth="yes"/>
      <point x="269" y="128"/>
      <point x="189" y="157"/>
      <point x="141" y="199" type="curve"/>
      <point x="201" y="244"/>
      <point x="264" y="272"/>
      <point x="379" y="272" type="curve" smooth="yes"/>
      <point x="406" y="272"/>
      <point x="428" y="270"/>
      <point x="450" y="269" type="curve"/>
      <point x="450" y="129" type="line"/>
      <point x="434" y="128"/>
      <point x="420" y="128"/>
    </contour>
    <contour>
      <point x="378" y="343" type="curve" smooth="yes"/>
      <point x="271" y="343"/>
      <point x="217" y="380"/>
      <point x="173" y="420" type="curve"/>
      <point x="227" y="466"/>
      <point x="281" y="486"/>
      <point x="396" y="486" type="curve" smooth="yes"/>
      <point x="413" y="486"/>
      <point x="431" y="486"/>
      <point x="450" y="485" type="curve"/>
      <point x="450" y="344" type="line"/>
      <point x="433" y="343"/>
      <point x="411" y="343"/>
    </contour>
  </outline>
</glyph>
<glyph name="uniA80C" format="2">
  <advance width="603"/>
  <unicode hex="A80C"/>
  <outline>
    <contour>
      <point x="440" y="0" type="line"/>
      <point x="516" y="0" type="line"/>
      <point x="516" y="611" type="line"/>
      <point x="613" y="611" type="line"/>
      <point x="613" y="679" type="line"/>
      <point x="-17" y="679" type="line"/>
      <point x="-17" y="611" type="line"/>
      <point x="440" y="611" type="line"/>
      <point x="440" y="515" type="line"/>
      <point x="419" y="515" type="line" smooth="yes"/>
      <point x="243" y="515"/>
      <point x="144" y="448"/>
      <point x="45" y="349" type="curve"/>
      <point x="141" y="212"/>
      <point x="273" y="164"/>
      <point x="440" y="158" type="curve"/>
    </contour>
    <contour>
      <point x="424" y="233" type="line" smooth="yes"/>
      <point x="304" y="233"/>
      <point x="211" y="269"/>
      <point x="142" y="339" type="curve"/>
      <point x="193" y="384"/>
      <point x="261" y="444"/>
      <point x="386" y="444" type="curve" smooth="yes"/>
      <point x="403" y="444"/>
      <point x="421" y="444"/>
      <point x="440" y="443" type="curve"/>
      <point x="440" y="233" type="line"/>
    </contour>
  </outline>
</glyph>
<glyph name="uniA80D" format="2">
  <advance width="735"/>
  <unicode hex="A80D"/>
  <outline>
    <contour>
      <point x="259" y="-147" type="line"/>
      <point x="300" y="-27"/>
      <point x="372" y="50"/>
      <point x="426" y="91" type="curve"/>
      <point x="426" y="46" type="line" smooth="yes"/>
      <point x="426" y="-11"/>
      <point x="433" y="-82"/>
      <point x="532" y="-82" type="curve" smooth="yes"/>
      <point x="621" y="-82"/>
      <point x="693" y="17"/>
      <point x="693" y="80" type="curve" smooth="yes"/>
      <point x="693" y="149"/>
      <point x="648" y="195"/>
      <point x="550" y="195" type="curve" smooth="yes"/>
      <point x="534" y="195"/>
      <point x="517" y="192"/>
      <point x="500" y="188" type="curve"/>
      <point x="500" y="457" type="line"/>
      <point x="416" y="490" type="line"/>
      <point x="318" y="421"/>
      <point x="267" y="384"/>
      <point x="168" y="275" type="curve"/>
      <point x="164" y="276" type="line"/>
      <point x="164" y="611" type="line"/>
      <point x="747" y="611" type="line"/>
      <point x="747" y="679" type="line"/>
      <point x="-17" y="679" type="line"/>
      <point x="-17" y="611" type="line"/>
      <point x="87" y="611" type="line"/>
      <point x="87" y="176" type="line"/>
      <point x="167" y="143" type="line"/>
      <point x="267" y="304"/>
      <point x="381" y="378"/>
      <point x="423" y="405" type="curve"/>
      <point x="426" y="404" type="line"/>
      <point x="426" y="166" type="line"/>
      <point x="340" y="119"/>
      <point x="239" y="23"/>
      <point x="191" y="-122" type="curve"/>
    </contour>
    <contour>
      <point x="533" y="-12" type="curve" smooth="yes"/>
      <point x="504" y="-12"/>
      <point x="500" y="7"/>
      <point x="500" y="44" type="curve" smooth="yes"/>
      <point x="500" y="126" type="line"/>
      <point x="517" y="131"/>
      <point x="533" y="133"/>
      <point x="548" y="133" type="curve" smooth="yes"/>
      <point x="600" y="133"/>
      <point x="617" y="106"/>
      <point x="617" y="79" type="curve" smooth="yes"/>
      <point x="617" y="35"/>
      <point x="580" y="-12"/>
    </contour>
  </outline>
</glyph>
<glyph name="uniA814" format="2">
  <advance width="572"/>
  <unicode hex="A814"/>
  <outline>
    <contour>
      <point x="91" y="-15" type="line"/>
      <point x="165" y="55"/>
      <point x="194" y="123"/>
      <point x="194" y="194" type="curve" smooth="yes"/>
      <point x="194" y="237"/>
      <point x="181" y="281"/>
      <point x="155" y="314" type="curve"/>
      <point x="157" y="317" type="line"/>
      <point x="185" y="305"/>
      <point x="221" y="300"/>
      <point x="245" y="300" type="curve" smooth="yes"/>
      <point x="363" y="300"/>
      <point x="424" y="332"/>
      <point x="493" y="383" type="curve"/>
      <point x="454" y="445" type="line"/>
      <point x="402" y="406"/>
      <point x="338" y="370"/>
      <point x="245" y="370" type="curve" smooth="yes"/>
      <point x="200" y="370"/>
      <point x="139" y="382"/>
      <point x="78" y="414" type="curve"/>
      <point x="38" y="352" type="line"/>
      <point x="94" y="304"/>
      <point x="121" y="258"/>
      <point x="121" y="194" type="curve" smooth="yes"/>
      <point x="121" y="141"/>
      <point x="95" y="93"/>
      <point x="34" y="37" type="curve"/>
    </contour>
    <contour>
      <point x="434" y="0" type="line"/>
      <point x="509" y="0" type="line"/>
      <point x="509" y="621" type="line"/>
      <point x="434" y="621" type="line"/>
    </contour>
    <contour>
      <point x="-17" y="611" type="line"/>
      <point x="577" y="611" type="line"/>
      <point x="577" y="679" type="line"/>
      <point x="-17" y="679" type="line"/>
    </contour>
  </outline>
</glyph>
<glyph name="uniA817" format="2">
  <advance width="806"/>
  <unicode hex="A817"/>
  <outline>
    <contour>
      <point x="648" y="0" type="line"/>
      <point x="724" y="0" type="line"/>
      <point x="724" y="611" type="line"/>
      <point x="809" y="611" type="line"/>
      <point x="809" y="679" type="line"/>
      <point x="-17" y="679" type="line"/>
      <point x="-17" y="611" type="line"/>
      <point x="38" y="611" type="line"/>
      <point x="43" y="482"/>
      <point x="92" y="393"/>
      <point x="218" y="393" type="curve" smooth="yes"/>
      <point x="244" y="393"/>
      <point x="268" y="399"/>
      <point x="290" y="409" type="curve"/>
      <point x="290" y="212" type="line"/>
      <point x="377" y="185" type="line"/>
      <point x="482" y="374"/>
      <point x="553" y="438"/>
      <point x="645" y="518" type="curve"/>
      <point x="648" y="517" type="line"/>
    </contour>
    <contour>
      <point x="371" y="313" type="curve"/>
      <point x="367" y="314" type="line"/>
      <point x="367" y="499" type="line"/>
      <point x="358" y="503" type="line"/>
      <point x="303" y="465"/>
      <point x="260" y="462"/>
      <point x="227" y="462" type="curve" smooth="yes"/>
      <point x="143" y="462"/>
      <point x="116" y="523"/>
      <point x="112" y="611" type="curve"/>
      <point x="649" y="611" type="line"/>
      <point x="540" y="518"/>
      <point x="464" y="449"/>
    </contour>
  </outline>
</glyph>
<glyph name="uniA81C" format="2">
  <advance width="716"/>
  <unicode hex="A81C"/>
  <outline>
    <contour>
      <point x="552" y="0" type="line"/>
      <point x="628" y="0" type="line"/>
      <point x="628" y="611" type="line"/>
      <point x="724" y="611" type="line"/>
      <point x="724" y="679" type="line"/>
      <point x="-17" y="679" type="line"/>
      <point x="-17" y="611" type="line"/>
      <point x="393" y="611" type="line"/>
      <point x="323" y="575"/>
      <point x="254" y="518"/>
      <point x="204" y="450" type="curve"/>
      <point x="163" y="458"/>
      <point x="122" y="460"/>
      <point x="91" y="460" type="curve" smooth="yes"/>
      <point x="62" y="460"/>
      <point x="41" y="458"/>
      <point x="35" y="458" type="curve"/>
      <point x="44" y="389" type="line"/>
      <point x="55" y="390"/>
      <point x="68" y="390"/>
      <point x="82" y="390" type="curve" smooth="yes"/>
      <point x="106" y="390"/>
      <point x="135" y="389"/>
      <point x="164" y="385" type="curve"/>
      <point x="143" y="342"/>
      <point x="131" y="296"/>
      <point x="131" y="249" type="curve" smooth="yes"/>
      <point x="131" y="143"/>
      <point x="207" y="83"/>
      <point x="286" y="83" type="curve" smooth="yes"/>
      <point x="382" y="83"/>
      <point x="436" y="154"/>
      <point x="436" y="230" type="curve" smooth="yes"/>
      <point x="436" y="306"/>
      <point x="397" y="377"/>
      <point x="274" y="428" type="curve"/>
      <point x="338" y="518"/>
      <point x="453" y="593"/>
      <point x="542" y="593" type="curve" smooth="yes"/>
      <point x="545" y="593"/>
      <point x="548" y="593"/>
      <point x="552" y="592" type="curve"/>
    </contour>
    <contour>
      <point x="287" y="153" type="curve" smooth="yes"/>
      <point x="243" y="153"/>
      <point x="209" y="193"/>
      <point x="209" y="245" type="curve" smooth="yes"/>
      <point x="209" y="286"/>
      <point x="221" y="324"/>
      <point x="242" y="364" type="curve"/>
      <point x="329" y="328"/>
      <point x="358" y="275"/>
      <point x="358" y="225" type="curve" smooth="yes"/>
      <point x="358" y="188"/>
      <point x="332" y="153"/>
    </contour>
  </outline>
</glyph>
<glyph name="uniA81D" format="2">
  <advance width="662"/>
  <unicode hex="A81D"/>
  <outline>
    <contour>
      <point x="509" y="0" type="line"/>
      <point x="585" y="0" type="line"/>
      <point x="585" y="611" type="line"/>
      <point x="670" y="611" type="line"/>
      <point x="670" y="679" type="line"/>
      <point x="-17" y="679" type="line"/>
      <point x="-17" y="611" type="line"/>
      <point x="32" y="611" type="line"/>
      <point x="106" y="539"/>
      <point x="159" y="477"/>
      <point x="197" y="424" type="curve"/>
      <point x="108" y="356"/>
      <point x="70" y="302"/>
      <point x="70" y="238" type="curve" smooth="yes"/>
      <point x="70" y="172"/>
      <point x="108" y="103"/>
      <point x="204" y="103" type="curve" smooth="yes"/>
      <point x="289" y="103"/>
      <point x="346" y="164"/>
      <point x="346" y="236" type="curve" smooth="yes"/>
      <point x="346" y="289"/>
      <point x="334" y="341"/>
      <point x="294" y="409" type="curve"/>
      <point x="348" y="446"/>
      <point x="419" y="489"/>
      <point x="509" y="541" type="curve"/>
    </contour>
    <contour>
      <point x="207" y="172" type="curve" smooth="yes"/>
      <point x="164" y="172"/>
      <point x="144" y="205"/>
      <point x="144" y="238" type="curve" smooth="yes"/>
      <point x="144" y="279"/>
      <point x="171" y="318"/>
      <point x="234" y="367" type="curve"/>
      <point x="262" y="315"/>
      <point x="274" y="275"/>
      <point x="274" y="243" type="curve" smooth="yes"/>
      <point x="274" y="198"/>
      <point x="244" y="172"/>
    </contour>
    <contour>
      <point x="256" y="467" type="curve"/>
      <point x="226" y="508"/>
      <point x="186" y="555"/>
      <point x="135" y="611" type="curve"/>
      <point x="490" y="611" type="line"/>
      <point x="394" y="555"/>
      <point x="317" y="508"/>
    </contour>
  </outline>
</glyph>
<glyph name="uniA81E" format="2">
  <advance width="652"/>
  <unicode hex="A81E"/>
  <outline>
    <contour>
      <point x="499" y="0" type="line"/>
      <point x="575" y="0" type="line"/>
      <point x="575" y="611" type="line"/>
      <point x="660" y="611" type="line"/>
      <point x="660" y="679" type="line"/>
      <point x="-17" y="679" type="line"/>
      <point x="-17" y="611" type="line"/>
      <point x="501" y="611" type="line"/>
      <point x="496" y="559" type="line"/>
      <point x="499" y="558" type="line"/>
    </contour>
    <contour>
      <point x="159" y="217" type="curve" smooth="yes"/>
      <point x="217" y="217"/>
      <point x="252" y="251"/>
      <point x="299" y="309" type="curve" smooth="yes"/>
      <point x="393" y="425"/>
      <point x="458" y="541"/>
      <point x="581" y="629" type="curve"/>
      <point x="511" y="659" type="line"/>
      <point x="403" y="576"/>
      <point x="325" y="454"/>
      <point x="238" y="350" type="curve" smooth="yes"/>
      <point x="205" y="310"/>
      <point x="190" y="299"/>
      <point x="165" y="299" type="curve" smooth="yes"/>
      <point x="147" y="299"/>
      <point x="127" y="308"/>
      <point x="112" y="328" type="curve"/>
      <point x="55" y="272" type="line"/>
      <point x="93" y="227"/>
      <point x="120" y="217"/>
    </contour>
  </outline>
</glyph>
<glyph name="uniA81F" format="2">
  <advance width="652"/>
  <unicode hex="A81F"/>
  <outline>
    <contour>
      <point x="499" y="0" type="line"/>
      <point x="575" y="0" type="line"/>
      <point x="575" y="611" type="line"/>
      <point x="660" y="611" type="line"/>
      <point x="660" y="679" type="line"/>
      <point x="-17" y="679" type="line"/>
      <point x="-17" y="611" type="line"/>
      <point x="453" y="611" type="line"/>
      <point x="370" y="537"/>
      <point x="297" y="450"/>
      <point x="227" y="365" type="curve" smooth="yes"/>
      <point x="194" y="324"/>
      <point x="179" y="310"/>
      <point x="154" y="310" type="curve" smooth="yes"/>
      <point x="136" y="310"/>
      <point x="118" y="318"/>
      <point x="99" y="340" type="curve"/>
      <point x="45" y="288" type="line"/>
      <point x="76" y="245"/>
      <point x="109" y="231"/>
      <point x="147" y="231" type="curve" smooth="yes"/>
      <point x="206" y="231"/>
      <point x="241" y="266"/>
      <point x="288" y="323" type="curve" smooth="yes"/>
      <point x="360" y="410"/>
      <point x="423" y="489"/>
      <point x="499" y="557" type="curve"/>
    </contour>
    <contour>
      <point x="357" y="-70" type="curve"/>
      <point x="401" y="-14" type="line"/>
      <point x="362" y="10"/>
      <point x="337" y="44"/>
      <point x="337" y="99" type="curve" smooth="yes"/>
      <point x="337" y="170"/>
      <point x="385" y="213"/>
      <point x="438" y="250" type="curve"/>
      <point x="401" y="301" type="line"/>
      <point x="340" y="258"/>
      <point x="267" y="194"/>
      <point x="267" y="95" type="curve" smooth="yes"/>
      <point x="267" y="14"/>
      <point x="311" y="-42"/>
    </contour>
  </outline>
</glyph>
<glyph name="uniA820" format="2">
  <advance width="609"/>
  <unicode hex="A820"/>
  <outline>
    <contour>
      <point x="287" y="-182" type="line"/>
      <point x="415" y="-89"/>
      <point x="528" y="70"/>
      <point x="528" y="258" type="curve" smooth="yes"/>
      <point x="528" y="324"/>
      <point x="511" y="396"/>
      <point x="485" y="451" type="curve"/>
      <point x="353" y="440"/>
      <point x="235" y="370"/>
      <point x="168" y="275" type="curve"/>
      <point x="164" y="276" type="line"/>
      <point x="164" y="611" type="line"/>
      <point x="624" y="611" type="line"/>
      <point x="624" y="679" type="line"/>
      <point x="-17" y="679" type="line"/>
      <point x="-17" y="611" type="line"/>
      <point x="87" y="611" type="line"/>
      <point x="87" y="175" type="line"/>
      <point x="161" y="143" type="line"/>
      <point x="213" y="232"/>
      <point x="312" y="349"/>
      <point x="436" y="371" type="curve"/>
      <point x="446" y="337"/>
      <point x="453" y="299"/>
      <point x="453" y="265" type="curve" smooth="yes"/>
      <point x="453" y="93"/>
      <point x="370" y="-10"/>
      <point x="235" y="-121" type="curve"/>
    </contour>
  </outline>
</glyph>
<glyph name="uniA822" format="2">
  <advance width="787"/>
  <unicode hex="A822"/>
  <outline>
    <contour>
      <point x="638" y="0" type="line"/>
      <point x="714" y="0" type="line"/>
      <point x="714" y="611" type="line"/>
      <point x="799" y="611" type="line"/>
      <point x="799" y="679" type="line"/>
      <point x="-17" y="679" type="line"/>
      <point x="-17" y="611" type="line"/>
      <point x="68" y="611" type="line"/>
      <point x="68" y="95" type="line"/>
      <point x="147" y="63" type="line"/>
      <point x="274" y="268"/>
      <point x="474" y="417"/>
      <point x="635" y="518" type="curve"/>
      <point x="638" y="517" type="line"/>
    </contour>
    <contour>
      <point x="544" y="-82" type="curve"/>
      <point x="568" y="-14" type="line"/>
      <point x="543" y="-8"/>
      <point x="465" y="19"/>
      <point x="465" y="103" type="curve" smooth="yes"/>
      <point x="465" y="194"/>
      <point x="518" y="236"/>
      <point x="570" y="280" type="curve"/>
      <point x="535" y="326" type="line"/>
      <point x="493" y="295"/>
      <point x="394" y="219"/>
      <point x="394" y="102" type="curve" smooth="yes"/>
      <point x="394" y="-23"/>
      <point x="499" y="-67"/>
    </contour>
    <contour>
      <point x="148" y="196" type="curve"/>
      <point x="144" y="197" type="line"/>
      <point x="144" y="611" type="line"/>
      <point x="640" y="611" type="line"/>
      <point x="481" y="508"/>
      <point x="268" y="364"/>
    </contour>
  </outline>
</glyph>
<glyph name="uniA827" format="2">
  <advance width="262"/>
  <unicode hex="A827"/>
  <outline>
    <contour>
      <point x="100" y="0" type="line"/>
      <point x="176" y="0" type="line"/>
      <point x="176" y="611" type="line"/>
      <point x="270" y="611" type="line"/>
      <point x="270" y="679" type="line"/>
      <point x="-17" y="679" type="line"/>
      <point x="-17" y="611" type="line"/>
      <point x="100" y="611" type="line"/>
    </contour>
    <contour>
      <point x="100" y="663" type="curve"/>
      <point x="165" y="675" type="line"/>
      <point x="106" y="803"/>
      <point x="7" y="890"/>
      <point x="-101" y="935" type="curve"/>
      <point x="-130" y="871" type="line"/>
      <point x="-41" y="835"/>
      <point x="43" y="769"/>
    </contour>
  </outline>
</glyph>
<glyph name="uniA82A" format="2">
  <advance width="628"/>
  <unicode hex="A82A"/>
  <outline>
    <contour>
      <point x="457" y="344" type="curve" smooth="yes"/>
      <point x="519" y="344"/>
      <point x="574" y="389"/>
      <point x="574" y="451" type="curve" smooth="yes"/>
      <point x="574" y="515"/>
      <point x="519" y="559"/>
      <point x="457" y="559" type="curve" smooth="yes"/>
      <point x="396" y="559"/>
      <point x="342" y="515"/>
      <point x="342" y="451" type="curve" smooth="yes"/>
      <point x="342" y="389"/>
      <point x="396" y="344"/>
    </contour>
    <contour>
      <point x="307" y="102" type="curve" smooth="yes"/>
      <point x="370" y="102"/>
      <point x="424" y="146"/>
      <point x="424" y="209" type="curve" smooth="yes"/>
      <point x="424" y="273"/>
      <point x="370" y="316"/>
      <point x="307" y="316" type="curve" smooth="yes"/>
      <point x="246" y="316"/>
      <point x="193" y="273"/>
      <point x="193" y="209" type="curve" smooth="yes"/>
      <point x="193" y="146"/>
      <point x="246" y="102"/>
    </contour>
    <contour>
      <point x="306" y="163" type="curve" smooth="yes"/>
      <point x="282" y="163"/>
      <point x="259" y="184"/>
      <point x="259" y="208" type="curve" smooth="yes"/>
      <point x="259" y="234"/>
      <point x="282" y="255"/>
      <point x="306" y="255" type="curve" smooth="yes"/>
      <point x="333" y="255"/>
      <point x="353" y="234"/>
      <point x="353" y="208" type="curve" smooth="yes"/>
      <point x="353" y="184"/>
      <point x="333" y="163"/>
    </contour>
    <contour>
      <point x="164" y="344" type="curve" smooth="yes"/>
      <point x="226" y="344"/>
      <point x="281" y="389"/>
      <point x="281" y="451" type="curve" smooth="yes"/>
      <point x="281" y="515"/>
      <point x="226" y="559"/>
      <point x="164" y="559" type="curve" smooth="yes"/>
      <point x="103" y="559"/>
      <point x="49" y="515"/>
      <point x="49" y="451" type="curve" smooth="yes"/>
      <point x="49" y="389"/>
      <point x="103" y="344"/>
    </contour>
    <contour>
      <point x="163" y="405" type="curve" smooth="yes"/>
      <point x="138" y="405"/>
      <point x="115" y="426"/>
      <point x="115" y="450" type="curve" smooth="yes"/>
      <point x="115" y="477"/>
      <point x="138" y="497"/>
      <point x="163" y="497" type="curve" smooth="yes"/>
      <point x="190" y="497"/>
      <point x="210" y="477"/>
      <point x="210" y="450" type="curve" smooth="yes"/>
      <point x="210" y="426"/>
      <point x="190" y="405"/>
    </contour>
    <contour>
      <point x="456" y="405" type="curve" smooth="yes"/>
      <point x="431" y="405"/>
      <point x="408" y="426"/>
      <point x="408" y="450" type="curve" smooth="yes"/>
      <point x="408" y="477"/>
      <point x="431" y="497"/>
      <point x="456" y="497" type="curve" smooth="yes"/>
      <point x="483" y="497"/>
      <point x="503" y="477"/>
      <point x="503" y="450" type="curve" smooth="yes"/>
      <point x="503" y="426"/>
      <point x="483" y="405"/>
    </contour>
  </outline>
</glyph>
<glyph name="uniA82C" format="2">
  <unicode hex="A82C"/>
  <outline>
    <contour>
      <point x="-224" y="-77" type="line"/>
      <point x="-276" y="-141" type="line"/>
      <point x="-21" y="-268" type="line"/>
      <point x="22" y="-214" type="line"/>
    </contour>
  </outline>
</glyph>
<glyph name="uniA807uniA814" format="2">
  <advance width="915"/>
  <outline>
    <contour>
      <point x="373" y="-293" type="line"/>
      <point x="433" y="-232"/>
      <point x="459" y="-188"/>
      <point x="459" y="-128" type="curve" smooth="yes"/>
      <point x="459" y="-84"/>
      <point x="443" y="-41"/>
      <point x="417" y="-1" type="curve"/>
      <point x="419" y="2" type="line"/>
      <point x="451" y="-10"/>
      <point x="503" y="-13"/>
      <point x="538" y="-13" type="curve" smooth="yes"/>
      <point x="610" y="-13"/>
      <point x="685" y="4"/>
      <point x="741" y="30" type="curve"/>
      <point x="741" y="-202" type="line"/>
      <point x="817" y="-202" type="line"/>
      <point x="817" y="611" type="line"/>
      <point x="922" y="611" type="line"/>
      <point x="922" y="679" type="line"/>
      <point x="-17" y="679" type="line"/>
      <point x="-17" y="611" type="line"/>
      <point x="87" y="611" type="line"/>
      <point x="87" y="166" type="line"/>
      <point x="159" y="132" type="line"/>
      <point x="230" y="216"/>
      <point x="311" y="287"/>
      <point x="395" y="346" type="curve"/>
      <point x="395" y="131" type="line"/>
      <point x="470" y="131" type="line"/>
      <point x="470" y="395" type="line"/>
      <point x="561" y="450"/>
      <point x="653" y="493"/>
      <point x="738" y="523" type="curve"/>
      <point x="741" y="522" type="line"/>
      <point x="741" y="112" type="line"/>
      <point x="674" y="75"/>
      <point x="600" y="58"/>
      <point x="526" y="58" type="curve" smooth="yes"/>
      <point x="478" y="58"/>
      <point x="393" y="68"/>
      <point x="327" y="106" type="curve"/>
      <point x="294" y="43" type="line"/>
      <point x="350" y="-4"/>
      <point x="385" y="-61"/>
      <point x="385" y="-118" type="curve" smooth="yes"/>
      <point x="385" y="-164"/>
      <point x="370" y="-192"/>
      <point x="315" y="-240" type="curve"/>
    </contour>
    <contour>
      <point x="168" y="255" type="curve"/>
      <point x="164" y="256" type="line"/>
      <point x="164" y="611" type="line"/>
      <point x="395" y="611" type="line"/>
      <point x="395" y="432" type="line"/>
      <point x="319" y="382"/>
      <point x="243" y="324"/>
    </contour>
    <contour>
      <point x="470" y="479" type="curve"/>
      <point x="470" y="611" type="line"/>
      <point x="743" y="611" type="line"/>
      <point x="651" y="575"/>
      <point x="560" y="533"/>
    </contour>
  </outline>
</glyph>
<glyph name="uniA80CuniA80C" format="2">
  <advance width="979"/>
  <outline>
    <contour>
      <point x="440" y="0" type="line"/>
      <point x="516" y="0" type="line"/>
      <point x="516" y="251" type="line"/>
      <point x="598" y="189"/>
      <point x="697" y="162"/>
      <point x="814" y="158" type="curve"/>
      <point x="814" y="0" type="line"/>
      <point x="890" y="0" type="line"/>
      <point x="890" y="611" type="line"/>
      <point x="987" y="611" type="line"/>
      <point x="987" y="679" type="line"/>
      <point x="-17" y="679" type="line"/>
      <point x="-17" y="611" type="line"/>
      <point x="440" y="611" type="line"/>
      <point x="440" y="515" type="line"/>
      <point x="419" y="515" type="line" smooth="yes"/>
      <point x="243" y="515"/>
      <point x="144" y="451"/>
      <point x="45" y="352" type="curve"/>
      <point x="141" y="215"/>
      <point x="273" y="164"/>
      <point x="440" y="158" type="curve"/>
    </contour>
    <contour>
      <point x="424" y="233" type="line" smooth="yes"/>
      <point x="304" y="233"/>
      <point x="191" y="276"/>
      <point x="142" y="339" type="curve"/>
      <point x="191" y="386"/>
      <point x="261" y="444"/>
      <point x="386" y="444" type="curve" smooth="yes"/>
      <point x="403" y="444"/>
      <point x="421" y="444"/>
      <point x="440" y="443" type="curve"/>
      <point x="440" y="233" type="line"/>
    </contour>
    <contour>
      <point x="798" y="233" type="line" smooth="yes"/>
      <point x="678" y="233"/>
      <point x="577" y="274"/>
      <point x="516" y="339" type="curve"/>
      <point x="567" y="384"/>
      <point x="634" y="444"/>
      <point x="760" y="444" type="curve" smooth="yes"/>
      <point x="777" y="444"/>
      <point x="795" y="444"/>
      <point x="814" y="443" type="curve"/>
      <point x="814" y="233" type="line"/>
    </contour>
    <contour>
      <point x="516" y="435" type="curve"/>
      <point x="516" y="611" type="line"/>
      <point x="814" y="611" type="line"/>
      <point x="814" y="515" type="line"/>
      <point x="793" y="515" type="line" smooth="yes"/>
      <point x="673" y="515"/>
      <point x="588" y="485"/>
    </contour>
  </outline>
</glyph>
<glyph name="uniA814uniA814" format="2">
  <advance width="610"/>
  <outline>
    <contour>
      <point x="235" y="-99" type="line"/>
      <point x="280" y="-49"/>
      <point x="307" y="6"/>
      <point x="307" y="59" type="curve" smooth="yes"/>
      <point x="307" y="95"/>
      <point x="298" y="125"/>
      <point x="271" y="161" type="curve"/>
      <point x="274" y="164" type="line"/>
      <point x="298" y="155"/>
      <point x="326" y="149"/>
      <point x="355" y="149" type="curve" smooth="yes"/>
      <point x="388" y="149"/>
      <point x="425" y="154"/>
      <point x="464" y="166" type="curve"/>
      <point x="464" y="-99" type="line"/>
      <point x="539" y="-99" type="line"/>
      <point x="539" y="611" type="line"/>
      <point x="617" y="611" type="line"/>
      <point x="617" y="679" type="line"/>
      <point x="-17" y="679" type="line"/>
      <point x="-17" y="611" type="line"/>
      <point x="464" y="611" type="line"/>
      <point x="464" y="505" type="line"/>
      <point x="399" y="473"/>
      <point x="342" y="460"/>
      <point x="272" y="460" type="curve" smooth="yes"/>
      <point x="208" y="460"/>
      <point x="137" y="483"/>
      <point x="78" y="517" type="curve"/>
      <point x="37" y="457" type="line"/>
      <point x="90" y="419"/>
      <point x="102" y="372"/>
      <point x="102" y="326" type="curve" smooth="yes"/>
      <point x="102" y="286"/>
      <point x="77" y="242"/>
      <point x="41" y="203" type="curve"/>
      <point x="105" y="155" type="line"/>
      <point x="149" y="204"/>
      <point x="174" y="256"/>
      <point x="174" y="308" type="curve" smooth="yes"/>
      <point x="174" y="344"/>
      <point x="166" y="380"/>
      <point x="147" y="413" type="curve"/>
      <point x="149" y="416" type="line"/>
      <point x="195" y="398"/>
      <point x="237" y="386"/>
      <point x="287" y="386" type="curve" smooth="yes"/>
      <point x="350" y="386"/>
      <point x="405" y="396"/>
      <point x="464" y="424" type="curve"/>
      <point x="464" y="243" type="line"/>
      <point x="421" y="226"/>
      <point x="376" y="220"/>
      <point x="343" y="220" type="curve" smooth="yes"/>
      <point x="300" y="220"/>
      <point x="254" y="230"/>
      <point x="210" y="250" type="curve"/>
      <point x="171" y="185" type="line"/>
      <point x="218" y="151"/>
      <point x="233" y="113"/>
      <point x="233" y="73" type="curve" smooth="yes"/>
      <point x="233" y="32"/>
      <point x="211" y="-6"/>
      <point x="173" y="-48" type="curve"/>
    </contour>
  </outline>
</glyph>
<glyph name="uniA818uniA814" format="2">
  <advance width="619"/>
  <outline>
    <contour>
      <point x="185" y="-158" type="line"/>
      <point x="229" y="-108"/>
      <point x="257" y="-55"/>
      <point x="257" y="-2" type="curve" smooth="yes"/>
      <point x="257" y="34"/>
      <point x="247" y="65"/>
      <point x="221" y="100" type="curve"/>
      <point x="223" y="103" type="line"/>
      <point x="256" y="93"/>
      <point x="289" y="88"/>
      <point x="320" y="88" type="curve" smooth="yes"/>
      <point x="370" y="88"/>
      <point x="418" y="100"/>
      <point x="466" y="122" type="curve"/>
      <point x="466" y="-99" type="line"/>
      <point x="541" y="-99" type="line"/>
      <point x="541" y="611" type="line"/>
      <point x="627" y="611" type="line"/>
      <point x="627" y="679" type="line"/>
      <point x="-17" y="679" type="line"/>
      <point x="-17" y="611" type="line"/>
      <point x="158" y="611" type="line"/>
      <point x="83" y="550"/>
      <point x="30" y="470"/>
      <point x="30" y="379" type="curve" smooth="yes"/>
      <point x="30" y="273"/>
      <point x="105" y="220"/>
      <point x="184" y="220" type="curve" smooth="yes"/>
      <point x="278" y="220"/>
      <point x="330" y="282"/>
      <point x="330" y="357" type="curve" smooth="yes"/>
      <point x="330" y="428"/>
      <point x="291" y="488"/>
      <point x="179" y="541" type="curve"/>
      <point x="231" y="598"/>
      <point x="291" y="615"/>
      <point x="366" y="615" type="curve" smooth="yes"/>
      <point x="389" y="615"/>
      <point x="432" y="614"/>
      <point x="466" y="609" type="curve"/>
      <point x="466" y="199" type="line"/>
      <point x="409" y="170"/>
      <point x="354" y="155"/>
      <point x="299" y="155" type="curve" smooth="yes"/>
      <point x="252" y="155"/>
      <point x="209" y="162"/>
      <point x="160" y="187" type="curve"/>
      <point x="121" y="124" type="line"/>
      <point x="168" y="91"/>
      <point x="183" y="53"/>
      <point x="183" y="12" type="curve" smooth="yes"/>
      <point x="183" y="-28"/>
      <point x="161" y="-67"/>
      <point x="122" y="-109" type="curve"/>
    </contour>
    <contour>
      <point x="185" y="286" type="curve" smooth="yes"/>
      <point x="130" y="286"/>
      <point x="106" y="329"/>
      <point x="106" y="380" type="curve" smooth="yes"/>
      <point x="106" y="415"/>
      <point x="116" y="448"/>
      <point x="140" y="484" type="curve"/>
      <point x="221" y="450"/>
      <point x="251" y="407"/>
      <point x="251" y="358" type="curve" smooth="yes"/>
      <point x="251" y="320"/>
      <point x="230" y="286"/>
    </contour>
  </outline>
</glyph>
<glyph name="uniA818uniA818" format="2">
  <advance width="679"/>
  <outline>
    <contour>
      <point x="260" y="-197" type="curve" smooth="yes"/>
      <point x="350" y="-197"/>
      <point x="404" y="-137"/>
      <point x="404" y="-65" type="curve" smooth="yes"/>
      <point x="404" y="5"/>
      <point x="368" y="59"/>
      <point x="259" y="110" type="curve"/>
      <point x="326" y="185"/>
      <point x="415" y="212"/>
      <point x="509" y="212" type="curve" smooth="yes"/>
      <point x="526" y="212" type="line"/>
      <point x="526" y="-99" type="line"/>
      <point x="602" y="-99" type="line"/>
      <point x="602" y="611" type="line"/>
      <point x="688" y="611" type="line"/>
      <point x="688" y="679" type="line"/>
      <point x="-16" y="679" type="line"/>
      <point x="-16" y="611" type="line"/>
      <point x="167" y="611" type="line"/>
      <point x="80" y="547"/>
      <point x="31" y="472"/>
      <point x="31" y="384" type="curve" smooth="yes"/>
      <point x="31" y="281"/>
      <point x="102" y="229"/>
      <point x="179" y="229" type="curve" smooth="yes"/>
      <point x="270" y="229"/>
      <point x="323" y="289"/>
      <point x="323" y="362" type="curve" smooth="yes"/>
      <point x="323" y="431"/>
      <point x="285" y="490"/>
      <point x="176" y="541" type="curve"/>
      <point x="229" y="603"/>
      <point x="342" y="615"/>
      <point x="404" y="615" type="curve" smooth="yes"/>
      <point x="436" y="615"/>
      <point x="484" y="614"/>
      <point x="526" y="609" type="curve"/>
      <point x="526" y="278" type="line"/>
      <point x="521" y="278" type="line" smooth="yes"/>
      <point x="255" y="278"/>
      <point x="112" y="92"/>
      <point x="112" y="-42" type="curve" smooth="yes"/>
      <point x="112" y="-145"/>
      <point x="183" y="-197"/>
    </contour>
    <contour>
      <point x="260" y="-125" type="curve" smooth="yes"/>
      <point x="210" y="-125"/>
      <point x="189" y="-86"/>
      <point x="189" y="-40" type="curve" smooth="yes"/>
      <point x="189" y="-9"/>
      <point x="199" y="22"/>
      <point x="219" y="55" type="curve"/>
      <point x="294" y="24"/>
      <point x="320" y="-14"/>
      <point x="320" y="-60" type="curve" smooth="yes"/>
      <point x="320" y="-95"/>
      <point x="300" y="-125"/>
    </contour>
    <contour>
      <point x="179" y="301" type="curve" smooth="yes"/>
      <point x="129" y="301"/>
      <point x="108" y="340"/>
      <point x="108" y="386" type="curve" smooth="yes"/>
      <point x="108" y="417"/>
      <point x="118" y="448"/>
      <point x="138" y="481" type="curve"/>
      <point x="213" y="450"/>
      <point x="239" y="412"/>
      <point x="239" y="367" type="curve" smooth="yes"/>
      <point x="239" y="331"/>
      <point x="219" y="301"/>
    </contour>
  </outline>
</glyph>
<glyph name="uniA81BuniA81B" format="2">
  <advance width="521"/>
  <outline>
    <contour>
      <point x="370" y="-119" type="line"/>
      <point x="445" y="-119" type="line"/>
      <point x="445" y="611" type="line"/>
      <point x="531" y="611" type="line"/>
      <point x="531" y="679" type="line"/>
      <point x="-17" y="679" type="line"/>
      <point x="-17" y="611" type="line"/>
      <point x="370" y="611" type="line"/>
      <point x="370" y="534" type="line"/>
      <point x="326" y="555"/>
      <point x="277" y="570"/>
      <point x="221" y="570" type="curve" smooth="yes"/>
      <point x="131" y="570"/>
      <point x="29" y="532"/>
      <point x="29" y="411" type="curve" smooth="yes"/>
      <point x="29" y="285"/>
      <point x="131" y="251"/>
      <point x="220" y="251" type="curve" smooth="yes"/>
      <point x="278" y="251"/>
      <point x="330" y="264"/>
      <point x="370" y="289" type="curve"/>
      <point x="370" y="181" type="line"/>
      <point x="328" y="201"/>
      <point x="282" y="215"/>
      <point x="228" y="215" type="curve" smooth="yes"/>
      <point x="141" y="215"/>
      <point x="41" y="182"/>
      <point x="41" y="65" type="curve" smooth="yes"/>
      <point x="41" y="-57"/>
      <point x="139" y="-96"/>
      <point x="225" y="-96" type="curve" smooth="yes"/>
      <point x="279" y="-96"/>
      <point x="331" y="-81"/>
      <point x="370" y="-58" type="curve"/>
    </contour>
    <contour>
      <point x="236" y="-28" type="curve" smooth="yes"/>
      <point x="185" y="-28"/>
      <point x="118" y="-16"/>
      <point x="118" y="65" type="curve" smooth="yes"/>
      <point x="118" y="134"/>
      <point x="179" y="150"/>
      <point x="232" y="150" type="curve" smooth="yes"/>
      <point x="286" y="150"/>
      <point x="333" y="131"/>
      <point x="370" y="110" type="curve"/>
      <point x="370" y="19" type="line"/>
      <point x="337" y="-5"/>
      <point x="289" y="-28"/>
    </contour>
    <contour>
      <point x="231" y="322" type="curve" smooth="yes"/>
      <point x="178" y="322"/>
      <point x="109" y="327"/>
      <point x="109" y="411" type="curve" smooth="yes"/>
      <point x="109" y="494"/>
      <point x="182" y="500"/>
      <point x="240" y="500" type="curve" smooth="yes"/>
      <point x="288" y="500"/>
      <point x="334" y="486"/>
      <point x="370" y="466" type="curve"/>
      <point x="370" y="371" type="line"/>
      <point x="330" y="336"/>
      <point x="286" y="322"/>
    </contour>
  </outline>
</glyph>
<glyph name="uniA81DuniA81B" format="2">
  <advance width="737"/>
  <outline>
    <contour>
      <point x="582" y="-119" type="line"/>
      <point x="658" y="-119" type="line"/>
      <point x="658" y="611" type="line"/>
      <point x="743" y="611" type="line"/>
      <point x="743" y="679" type="line"/>
      <point x="-17" y="679" type="line"/>
      <point x="-17" y="611" type="line"/>
      <point x="33" y="611" type="line"/>
      <point x="95" y="558"/>
      <point x="144" y="515"/>
      <point x="183" y="480" type="curve"/>
      <point x="117" y="421"/>
      <point x="90" y="371"/>
      <point x="90" y="309" type="curve" smooth="yes"/>
      <point x="90" y="242"/>
      <point x="139" y="182"/>
      <point x="227" y="182" type="curve" smooth="yes"/>
      <point x="312" y="182"/>
      <point x="367" y="234"/>
      <point x="367" y="307" type="curve" smooth="yes"/>
      <point x="367" y="369"/>
      <point x="342" y="412"/>
      <point x="276" y="479" type="curve"/>
      <point x="324" y="517"/>
      <point x="388" y="559"/>
      <point x="470" y="611" type="curve"/>
      <point x="582" y="611" type="line"/>
      <point x="582" y="174" type="line"/>
      <point x="538" y="194"/>
      <point x="499" y="208"/>
      <point x="451" y="208" type="curve" smooth="yes"/>
      <point x="367" y="208"/>
      <point x="272" y="173"/>
      <point x="272" y="59" type="curve" smooth="yes"/>
      <point x="272" y="-60"/>
      <point x="365" y="-100"/>
      <point x="449" y="-100" type="curve" smooth="yes"/>
      <point x="504" y="-100"/>
      <point x="543" y="-89"/>
      <point x="582" y="-66" type="curve"/>
    </contour>
    <contour>
      <point x="458" y="-34" type="curve" smooth="yes"/>
      <point x="401" y="-34"/>
      <point x="346" y="-17"/>
      <point x="346" y="59" type="curve" smooth="yes"/>
      <point x="346" y="125"/>
      <point x="403" y="144"/>
      <point x="454" y="144" type="curve" smooth="yes"/>
      <point x="501" y="144"/>
      <point x="543" y="129"/>
      <point x="582" y="107" type="curve"/>
      <point x="582" y="9" type="line"/>
      <point x="548" y="-17"/>
      <point x="512" y="-34"/>
    </contour>
    <contour>
      <point x="227" y="244" type="curve" smooth="yes"/>
      <point x="181" y="244"/>
      <point x="162" y="281"/>
      <point x="162" y="316" type="curve" smooth="yes"/>
      <point x="162" y="355"/>
      <point x="182" y="393"/>
      <point x="227" y="437" type="curve"/>
      <point x="275" y="387"/>
      <point x="297" y="352"/>
      <point x="297" y="314" type="curve" smooth="yes"/>
      <point x="297" y="269"/>
      <point x="265" y="244"/>
    </contour>
    <contour>
      <point x="233" y="521" type="curve"/>
      <point x="206" y="547"/>
      <point x="173" y="576"/>
      <point x="136" y="611" type="curve"/>
      <point x="356" y="611" type="line"/>
      <point x="308" y="577"/>
      <point x="267" y="548"/>
    </contour>
  </outline>
</glyph>
<glyph name="uniA81EuniA81F" format="2">
  <advance width="663"/>
  <outline>
    <contour>
      <point x="509" y="-99" type="line"/>
      <point x="585" y="-99" type="line"/>
      <point x="585" y="611" type="line"/>
      <point x="670" y="611" type="line"/>
      <point x="670" y="679" type="line"/>
      <point x="-17" y="679" type="line"/>
      <point x="-17" y="611" type="line"/>
      <point x="439" y="611" type="line"/>
      <point x="366" y="552"/>
      <point x="298" y="493"/>
      <point x="222" y="420" type="curve" smooth="yes"/>
      <point x="185" y="384"/>
      <point x="168" y="369"/>
      <point x="142" y="369" type="curve" smooth="yes"/>
      <point x="125" y="369"/>
      <point x="107" y="377"/>
      <point x="88" y="399" type="curve"/>
      <point x="34" y="346" type="line"/>
      <point x="65" y="304"/>
      <point x="98" y="290"/>
      <point x="136" y="290" type="curve" smooth="yes"/>
      <point x="195" y="290"/>
      <point x="230" y="325"/>
      <point x="283" y="379" type="curve" smooth="yes"/>
      <point x="364" y="462"/>
      <point x="430" y="518"/>
      <point x="506" y="576" type="curve"/>
      <point x="509" y="573" type="line"/>
      <point x="509" y="458" type="line"/>
      <point x="407" y="379"/>
      <point x="336" y="310"/>
      <point x="244" y="215" type="curve" smooth="yes"/>
      <point x="208" y="178"/>
      <point x="189" y="159"/>
      <point x="164" y="159" type="curve" smooth="yes"/>
      <point x="146" y="159"/>
      <point x="128" y="167"/>
      <point x="109" y="189" type="curve"/>
      <point x="55" y="136" type="line"/>
      <point x="86" y="94"/>
      <point x="119" y="80"/>
      <point x="157" y="80" type="curve" smooth="yes"/>
      <point x="216" y="80"/>
      <point x="255" y="119"/>
      <point x="305" y="174" type="curve" smooth="yes"/>
      <point x="382" y="260"/>
      <point x="438" y="313"/>
      <point x="509" y="369" type="curve"/>
    </contour>
    <contour>
      <point x="367" y="-191" type="curve"/>
      <point x="411" y="-135" type="line"/>
      <point x="372" y="-111"/>
      <point x="347" y="-77"/>
      <point x="347" y="-22" type="curve" smooth="yes"/>
      <point x="347" y="48"/>
      <point x="395" y="92"/>
      <point x="448" y="129" type="curve"/>
      <point x="411" y="180" type="line"/>
      <point x="350" y="136"/>
      <point x="277" y="73"/>
      <point x="277" y="-26" type="curve" smooth="yes"/>
      <point x="277" y="-107"/>
      <point x="321" y="-164"/>
    </contour>
  </outline>
</glyph>
<glyph name="uniA821uniA807" format="2">
  <advance width="1321"/>
  <outline>
    <contour>
      <point x="320" y="-31" type="curve"/>
      <point x="394" y="5" type="line"/>
      <point x="342" y="123"/>
      <point x="250" y="198"/>
      <point x="175" y="219" type="curve"/>
      <point x="176" y="223" type="line"/>
      <point x="252" y="228"/>
      <point x="318" y="264"/>
      <point x="351" y="316" type="curve"/>
      <point x="401" y="362"/>
      <point x="454" y="407"/>
      <point x="511" y="450" type="curve"/>
      <point x="511" y="95" type="line"/>
      <point x="583" y="62" type="line"/>
      <point x="669" y="162"/>
      <point x="751" y="242"/>
      <point x="829" y="306" type="curve"/>
      <point x="829" y="0" type="line"/>
      <point x="904" y="0" type="line"/>
      <point x="904" y="366" type="line"/>
      <point x="1004" y="440"/>
      <point x="1095" y="489"/>
      <point x="1173" y="523" type="curve"/>
      <point x="1176" y="522" type="line"/>
      <point x="1176" y="0" type="line"/>
      <point x="1251" y="0" type="line"/>
      <point x="1251" y="611" type="line"/>
      <point x="1326" y="611" type="line"/>
      <point x="1326" y="679" type="line"/>
      <point x="-7" y="679" type="line"/>
      <point x="-7" y="611" type="line"/>
      <point x="511" y="611" type="line"/>
      <point x="511" y="537" type="line"/>
      <point x="459" y="498"/>
      <point x="411" y="461"/>
      <point x="370" y="426" type="curve"/>
      <point x="355" y="511"/>
      <point x="290" y="562"/>
      <point x="218" y="562" type="curve" smooth="yes"/>
      <point x="155" y="562"/>
      <point x="86" y="539"/>
      <point x="34" y="495" type="curve"/>
      <point x="80" y="434" type="line"/>
      <point x="133" y="481"/>
      <point x="178" y="493"/>
      <point x="216" y="493" type="curve" smooth="yes"/>
      <point x="265" y="493"/>
      <point x="299" y="454"/>
      <point x="299" y="393" type="curve" smooth="yes"/>
      <point x="299" y="312"/>
      <point x="165" y="279"/>
      <point x="65" y="270" type="curve"/>
      <point x="65" y="196" type="line"/>
      <point x="139" y="179"/>
      <point x="259" y="130"/>
    </contour>
    <contour>
      <point x="592" y="189" type="curve"/>
      <point x="588" y="190" type="line"/>
      <point x="588" y="611" type="line"/>
      <point x="829" y="611" type="line"/>
      <point x="829" y="403" type="line"/>
      <point x="750" y="343"/>
      <point x="670" y="273"/>
    </contour>
    <contour>
      <point x="904" y="456" type="curve"/>
      <point x="904" y="611" type="line"/>
      <point x="1178" y="611" type="line"/>
      <point x="1093" y="570"/>
      <point x="1000" y="521"/>
    </contour>
  </outline>
</glyph>
